HIERARCHY
ROOT Hips
{
	OFFSET 0.000000 0.000000 0.000000 
	CHANNELS 6 Xposition Yposition Zposition Zrotation Yrotation Xrotation
	JOINT LeftUpLeg
	{
		OFFSET 1.363060 -1.794630 0.839290 
		CHANNELS 3 Zrotation Yrotation Xrotation
		JOINT LeftLeg
		{
			OFFSET 2.448110 -6.726130 0.000000 
			CHANNELS 3 Zrotation Yrotation Xrotation
			JOINT LeftFoot
			{
				OFFSET 2.562200 -7.039590 0.000000 
				CHANNELS 3 Zrotation Yrotation Xrotation
				JOINT LeftToeBase
				{
					OFFSET 0.157640 -0.433110 2.322550 
					CHANNELS 3 Zrotation Yrotation Xrotation
					End Site
					{
						OFFSET 0.000000 0.000000 0.000000 
					}
				}
			}
		}
	}
	JOINT RightUpLeg
	{
		OFFSET -1.305520 -1.794630 0.839290 
		CHANNELS 3 Zrotation Yrotation Xrotation
		JOINT RightLeg
		{
			OFFSET -2.542530 -6.985550 0.000000 
			CHANNELS 3 Zrotation Yrotation Xrotation
			JOINT RightFoot
			{
				OFFSET -2.568260 -7.056230 0.000000 
				CHANNELS 3 Zrotation Yrotation Xrotation
				JOINT RightToeBase
				{
					OFFSET -0.164730 -0.452590 2.363150 
					CHANNELS 3 Zrotation Yrotation Xrotation
					End Site
					{
						OFFSET 0.000000 0.000000 0.000000 
					}
				}
			}
		}
	}
	JOINT Spine
	{
		OFFSET 0.028270 2.035590 -0.193380 
		CHANNELS 3 Zrotation Yrotation Xrotation
		JOINT Spine1
		{
			OFFSET 0.056720 2.048850 -0.042750 
			CHANNELS 3 Zrotation Yrotation Xrotation
			JOINT Neck1
			{
				OFFSET -0.054170 1.746240 0.172020 
				CHANNELS 3 Zrotation Yrotation Xrotation
				JOINT Head
				{
					OFFSET 0.104070 1.761360 -0.123970 
					CHANNELS 3 Zrotation Yrotation Xrotation
					End Site
					{
						OFFSET 0.000000 0.000000 0.000000 
					}
				}
			}
			JOINT LeftArm
			{
				OFFSET 3.362410 1.200890 -0.311210 
				CHANNELS 3 Zrotation Yrotation Xrotation
				JOINT LeftForeArm
				{
					OFFSET 4.983000 -0.000000 -0.000000 
					CHANNELS 3 Zrotation Yrotation Xrotation
					JOINT LeftHand
					{
						OFFSET 3.483560 -0.000000 -0.000000 
						CHANNELS 3 Zrotation Yrotation Xrotation
						JOINT LeftHandIndex1
						{
							OFFSET 0.715260 -0.000000 -0.000000 
							CHANNELS 3 Zrotation Yrotation Xrotation
							End Site
							{
								OFFSET 0.000000 0.000000 0.000000 
							}
						}
					}
				}
			}
			JOINT RightArm
			{
				OFFSET -3.136600 1.374050 -0.404650 
				CHANNELS 3 Zrotation Yrotation Xrotation
				JOINT RightForeArm
				{
					OFFSET -5.241900 -0.000000 -0.000000 
					CHANNELS 3 Zrotation Yrotation Xrotation
					JOINT RightHand
					{
						OFFSET -3.444170 -0.000000 -0.000000 
						CHANNELS 3 Zrotation Yrotation Xrotation
						JOINT RightHandIndex1
						{
							OFFSET -0.622530 -0.000000 -0.000000 
							CHANNELS 3 Zrotation Yrotation Xrotation
							End Site
							{
								OFFSET 0.000000 0.000000 0.000000 
							}
						}
					}
				}
			}
		}
	}
}
MOTION
Frames: 6
Frame Time: 0.041667
-10.030396 17.660915 -16.001205 -163.711881 86.189775 -159.445887 -9.365259 -14.163216 -7.140665 -0.965093 9.006761 23.340795 0.023430 3.611261 -11.944428 1.721600 -8.260400 -23.507800 22.459638 -4.627621 7.035196 2.043768 -0.718961 3.276355 0.983297 -14.529915 -9.795823 -0.342300 3.759300 -10.400400 1.291107 -1.147104 -0.082437 1.316068 -1.001882 1.352660 5.834512 -3.670210 13.949288 2.740200 -1.711300 13.274600 -90.789569 -85.001842 55.173646 13.635665 -19.705035 -3.514360 -2.093012 1.255891 -31.024156 -7.125000 0.000000 0.000000 77.156677 75.710068 36.798992 -21.087241 26.842797 -6.825524 2.064310 -1.630610 -4.594257 7.125000 0.000000 0.000000 
-10.022087 17.668050 -16.003453 -162.812319 86.177274 -158.384875 -9.284938 -14.258201 -7.168283 -0.979013 8.969493 23.249663 0.020934 3.643418 -11.989664 1.610700 -8.003300 -22.724000 22.521071 -4.528104 6.880244 2.046394 -0.730522 3.266285 0.971703 -14.462918 -9.960883 -0.263900 3.305000 -9.129200 1.278604 -1.165077 -0.049630 1.253493 -1.028904 1.572973 5.626932 -3.629560 14.121510 2.596600 -1.695300 13.390700 -91.267224 -85.988881 55.832743 13.070450 -19.340659 -3.367558 -2.081261 1.200691 -31.114483 -7.125000 0.000000 0.000000 77.639919 76.928701 36.935460 -20.272685 26.098717 -6.531023 2.043063 -1.619802 -3.885788 7.125000 0.000000 0.000000 
-10.013779 17.674991 -16.006386 -161.732071 86.160697 -157.143867 -9.197783 -14.354971 -7.193208 -0.991053 8.933465 23.167338 0.017999 3.681374 -12.043661 1.510500 -7.761800 -21.993000 22.595143 -4.420693 6.725135 2.049880 -0.743331 3.255330 0.961320 -14.408633 -10.118785 -0.198900 2.871700 -7.921800 1.254341 -1.160823 -0.032214 1.145820 -1.043058 1.748953 5.410809 -3.622258 14.300797 2.438400 -1.691400 13.513000 -91.878007 -86.788920 56.620064 12.537695 -19.048451 -3.234489 -2.059041 1.151620 -31.209229 -7.125000 0.000000 0.000000 78.023345 78.024333 36.850967 -19.466008 25.337579 -6.248582 2.023643 -1.609349 -3.136192 7.125000 0.000000 0.000000 
-10.005567 17.680953 -16.009905 -160.546705 86.151437 -155.814277 -9.116409 -14.427346 -7.214686 -0.999781 8.902821 23.104183 0.013909 3.728099 -12.100454 1.439500 -7.585200 -21.461200 22.670129 -4.307810 6.589059 2.053840 -0.755698 3.244597 0.952643 -14.367950 -10.259690 -0.149800 2.494400 -6.874000 1.227490 -1.142005 -0.023212 1.023862 -1.050277 1.884535 5.233895 -3.640479 14.458231 2.300100 -1.695800 13.622800 -92.656979 -87.405280 57.471855 12.013614 -18.807517 -3.109018 -2.022114 1.113708 -31.218163 -7.125000 0.000000 0.000000 78.333855 79.045532 36.629164 -18.671405 24.565071 -5.978943 2.006730 -1.596401 -2.409506 7.125000 0.000000 0.000000 
-9.997552 17.685352 -16.013717 -159.405216 86.159275 -154.557562 -9.055789 -14.448815 -7.233639 -1.004459 8.880324 23.064894 0.008317 3.780271 -12.148698 1.410500 -7.511900 -21.241000 22.730053 -4.196294 6.489371 2.057610 -0.765581 3.235427 0.946214 -14.340004 -10.375315 -0.116400 2.199600 -6.057600 1.206341 -1.123986 -0.015538 0.925007 -1.059780 1.991201 5.123262 -3.662780 14.569704 2.205400 -1.699900 13.703100 -93.523477 -87.875321 58.250618 11.503456 -18.590002 -2.991512 -1.974730 1.088613 -31.084482 -7.125000 0.000000 0.000000 78.675905 80.021446 36.434007 -17.912887 23.840559 -5.728901 1.988354 -1.580263 -1.775307 7.125000 0.000000 0.000000 
-9.989439 17.687894 -16.017432 -158.440215 86.189271 -153.515148 -9.025381 -14.407065 -7.249452 -1.005672 8.866283 23.047903 0.001552 3.833025 -12.180104 1.426400 -7.552200 -21.362000 22.765093 -4.092783 6.433912 2.060731 -0.771736 3.228588 0.942539 -14.326872 -10.457547 -0.097100 2.009900 -5.533000 1.195928 -1.119465 -0.006204 0.877441 -1.077438 2.079465 5.076706 -3.666503 14.624524 2.159000 -1.695700 13.745400 -94.353546 -88.254518 58.819678 11.025758 -18.373874 -2.885336 -1.925030 1.074501 -30.797294 -7.125000 0.000000 0.000000 79.165163 80.934492 36.418247 -17.225767 23.246779 -5.509055 1.960071 -1.565252 -1.273780 7.125000 0.000000 0.000000 
